<svg  fill="none" xmlns="http://www.w3.org/2000/svg">
<symbol id='linkedin' viewBox="0 0 19 19">
<path d="M0.851562 3.31507C0.851562 2.73786 1.05427 2.26167 1.45967 1.8865C1.86507 1.51131 2.39211 1.32373 3.04075 1.32373C3.67782 1.32373 4.19326 1.50842 4.58708 1.87784C4.99248 2.2588 5.19519 2.75518 5.19519 3.36702C5.19519 3.92113 4.99829 4.38288 4.60446 4.7523C4.19906 5.13325 3.66623 5.32373 3.006 5.32373H2.98863C2.35156 5.32373 1.83612 5.13325 1.4423 4.7523C1.04847 4.37135 0.851562 3.89227 0.851562 3.31507ZM1.07743 18.4666V6.89949H4.93457V18.4666H1.07743ZM7.07164 18.4666H10.9288V12.0077C10.9288 11.6037 10.9751 11.292 11.0678 11.0726C11.2299 10.6801 11.4761 10.3482 11.8062 10.077C12.1363 9.80568 12.5504 9.67005 13.0485 9.67005C14.3458 9.67005 14.9944 10.5416 14.9944 12.2848V18.4666H18.8516V11.8345C18.8516 10.126 18.4462 8.83022 17.6353 7.9471C16.8245 7.06399 15.7531 6.62243 14.4211 6.62243C12.9269 6.62243 11.7628 7.26312 10.9288 8.54451V8.57914H10.9114L10.9288 8.54451V6.89949H7.07164C7.0948 7.26889 7.10639 8.41751 7.10639 10.3454C7.10639 12.2732 7.0948 14.9803 7.07164 18.4666Z"/>
</symbol>
<symbol id='instagram' viewBox="0 0 19 19">
<path fill-rule="evenodd" clip-rule="evenodd" d="M0.851562 9.39502C0.851562 5.79988 0.851562 4.00231 1.70825 2.70757C2.09081 2.12941 2.58595 1.63427 3.16412 1.25171C4.45885 0.39502 6.25642 0.39502 9.85156 0.39502C13.4467 0.39502 15.2443 0.39502 16.539 1.25171C17.1172 1.63427 17.6123 2.12941 17.9949 2.70757C18.8516 4.00231 18.8516 5.79988 18.8516 9.39502C18.8516 12.9902 18.8516 14.7877 17.9949 16.0825C17.6123 16.6606 17.1172 17.1558 16.539 17.5383C15.2443 18.395 13.4467 18.395 9.85156 18.395C6.25642 18.395 4.45885 18.395 3.16412 17.5383C2.58595 17.1558 2.09081 16.6606 1.70825 16.0825C0.851562 14.7877 0.851562 12.9902 0.851562 9.39502ZM14.5108 9.39525C14.5108 11.9686 12.4247 14.0547 9.8514 14.0547C7.27808 14.0547 5.19199 11.9686 5.19199 9.39525C5.19199 6.82193 7.27808 4.73584 9.8514 4.73584C12.4247 4.73584 14.5108 6.82193 14.5108 9.39525ZM9.8514 12.4782C11.5541 12.4782 12.9344 11.0979 12.9344 9.39525C12.9344 7.69255 11.5541 6.31224 9.8514 6.31224C8.14871 6.31224 6.7684 7.69255 6.7684 9.39525C6.7684 11.0979 8.14871 12.4782 9.8514 12.4782ZM14.6948 5.59657C15.2995 5.59657 15.7897 5.1064 15.7897 4.50174C15.7897 3.89709 15.2995 3.40692 14.6948 3.40692C14.0902 3.40692 13.6 3.89709 13.6 4.50174C13.6 5.1064 14.0902 5.59657 14.6948 5.59657Z"/>
</symbol>
<symbol id='fb' viewBox="0 0 11 19">
<path d="M7.31436 18.395V10.1844H10.2091L10.6424 6.98452H7.31428V4.94155C7.31428 4.01512 7.58446 3.38381 8.97991 3.38381L10.7596 3.38301V0.521091C10.4518 0.482165 9.39527 0.39502 8.16629 0.39502C5.60026 0.39502 3.84352 1.88619 3.84352 4.62474V6.98452H0.941406V10.1844H3.84352V18.3949H7.31436V18.395Z"/>
</symbol>
</svg>
